<?xml version="1.0" standalone="yes"?>
<!DOCTYPE svg PUBLIC "-//W3C//DTD SVG 1.1//EN"
 "http://www.w3.org/Graphics/SVG/1.1/DTD/svg11.dtd">
<svg xmlns="http://www.w3.org/2000/svg" version="1.1"
  width="100%" height="100%" viewBox="0 0 1024 768"
  style="fill: none; font-family: Helvetica;
 font: Helvetica;
">

<!-- Creator: NGspice -->

<rect x="0" y="0" width="1024" height="768" fill="black" stroke="none"/>
<text stroke="none" fill="white" font-size="16" x="358" y="752">
time
</text>
<text stroke="none" fill="white" font-size="16" x="10" y="16">
tran1: *run oscillator
</text>
<path stroke="white" stroke-dasharray="1,2" d="M50 704l0 -640"/>
<text stroke="none" fill="white" font-size="16" x="30" y="728">
90.0
</text>
<path stroke="white" stroke-dasharray="1,2" d="M142 704l0 -640"/>
<text stroke="none" fill="white" font-size="16" x="122" y="728">
91.0
</text>
<path stroke="white" stroke-dasharray="1,2" d="M234 704l0 -640"/>
<text stroke="none" fill="white" font-size="16" x="214" y="728">
92.0
</text>
<path stroke="white" stroke-dasharray="1,2" d="M326 704l0 -640"/>
<text stroke="none" fill="white" font-size="16" x="306" y="728">
93.0
</text>
<path stroke="white" stroke-dasharray="1,2" d="M418 704l0 -640"/>
<text stroke="none" fill="white" font-size="16" x="398" y="728">
94.0
</text>
<path stroke="white" stroke-dasharray="1,2" d="M510 704l0 -640"/>
<text stroke="none" fill="white" font-size="16" x="490" y="728">
95.0
</text>
<path stroke="white" stroke-dasharray="1,2" d="M602 704l0 -640"/>
<text stroke="none" fill="white" font-size="16" x="582" y="728">
96.0
</text>
<path stroke="white" stroke-dasharray="1,2" d="M694 704l0 -640"/>
<text stroke="none" fill="white" font-size="16" x="674" y="728">
97.0
</text>
<path stroke="white" stroke-dasharray="1,2" d="M786 704l0 -640"/>
<text stroke="none" fill="white" font-size="16" x="766" y="728">
98.0
</text>
<path stroke="white" stroke-dasharray="1,2" d="M878 704l0 -640"/>
<text stroke="none" fill="white" font-size="16" x="858" y="728">
99.0
</text>
<path stroke="white" stroke-dasharray="1,2" d="M970 704l0 -640"/>
<text stroke="none" fill="white" font-size="16" x="945" y="728">
100.0
</text>
<text stroke="none" fill="white" font-size="16" x="614" y="752">
ns
</text>
<path stroke="white" stroke-dasharray="1,2" d="M50 704l920 0"/>
<text stroke="none" fill="white" font-size="16" x="8" y="712">
-0.2
</text>
<path stroke="white" d="M50 624l920 0"/>
<text stroke="none" fill="white" font-size="16" x="18" y="632">
0.0
</text>
<path stroke="white" stroke-dasharray="1,2" d="M50 544l920 0"/>
<text stroke="none" fill="white" font-size="16" x="18" y="552">
0.2
</text>
<path stroke="white" stroke-dasharray="1,2" d="M50 464l920 0"/>
<text stroke="none" fill="white" font-size="16" x="18" y="472">
0.4
</text>
<path stroke="white" stroke-dasharray="1,2" d="M50 384l920 0"/>
<text stroke="none" fill="white" font-size="16" x="18" y="392">
0.6
</text>
<path stroke="white" stroke-dasharray="1,2" d="M50 304l920 0"/>
<text stroke="none" fill="white" font-size="16" x="18" y="312">
0.8
</text>
<path stroke="white" stroke-dasharray="1,2" d="M50 224l920 0"/>
<text stroke="none" fill="white" font-size="16" x="18" y="232">
1.0
</text>
<path stroke="white" stroke-dasharray="1,2" d="M50 144l920 0"/>
<text stroke="none" fill="white" font-size="16" x="18" y="152">
1.2
</text>
<path stroke="white" stroke-dasharray="1,2" d="M50 64l920 0"/>
<text stroke="none" fill="white" font-size="16" x="18" y="72">
1.4
</text>
<text stroke="none" fill="white" font-size="16" x="10" y="32">
V
</text>
<path stroke="red" d="M460 23l46 0"/>
<text stroke="none" fill="white" font-size="16" x="516" y="32">
en
</text>
<path stroke="red" d="M50 144l920 0"/>
<path stroke="blue" d="M50 23l46 0"/>
<text stroke="none" fill="white" font-size="16" x="106" y="32">
out0
</text>
<path stroke="blue" d="M50 158l0 -7 1 -3 1 -2 1 -1 1 0 1 -1 8 0 1 -2 1 1 1 28 1 79 1 120 1 123 1 78 1 33 1 13 1 5M73 623l0 -1M73 623l1 1 10 0 1 2 1 1 1 -13 1 -55 1 -98 1 -111 1 -88 1 -54 1 -28 1 -15 1 -9 1 -6 0 -3 2 -2 1 0 1 -1 8 0 1 -2 1 6 1 40"/>
<path stroke="blue" d="M111 188l1 91 1 126 1 114 1 64 1 25 1 11 1 4 1 0M119 624l0 -1M119 624l11 0M130 626l0 -2M130 626l1 -1 1 -21 1 -67 2 -214 1 -79 1 -45 1 -24 1 -13 1 -8 1 -5 1 -2 0 -1 1 -1 1 0 1 -1 8 0 0 -1 1 -2 1 13 1 54 1 103 1 128 1 102"/>
<path stroke="blue" d="M159 541l1 51 1 20 1 9 1 2 1 1 10 0 1 1 1 2 0 -4 1 -31 1 -79 1 -112 1 -102 1 -69 1 -39 1 -20 1 -11 1 -8 1 -4 1 -2 1 -1 1 0 1 -1 8 0 1 -1 0 -2 1 20 1 67 1 113 1 127 1 90 1 41 1 16 1 7 2 2 10 0 1 1 1 3 1 -9 0 -42 1 -90 1 -113"/>
<path stroke="blue" d="M224 374l1 -95 1 -61 1 -33 1 -17 1 -10 1 -7 1 -3 1 -2 1 -1 1 0 0 -1 9 0 1 -2 1 2M245 173l0 -29M245 173l1 80 2 242 1 77 1 32 1 13 1 5 2 2 10 0 1 2 1 1 1 -14 1 -56 0 -99 1 -111 1 -87 1 -53 1 -27 1 -15 1 -9 1 -6 1 -3 2 -2"/>
<path stroke="blue" d="M278 145l1 0 1 -1 8 0 1 -3 1 7 1 42M291 282l0 -92M291 282l1 127 1 112 1 63 1 25 1 10 1 4 1 0 1 1 10 0 1 2 1 -1 1 -22 1 -68 1 -108 0 -107 1 -77 1 -45 1 -23 1 -13 1 -8 1 -5 1 -2 2 -2 1 0 1 -1 7 0 1 -1 1 -2 1 13 1 56 1 103"/>
<path stroke="blue" d="M337 442l0 -129M337 442l1 101 1 50 1 19 1 9 1 2 1 1 10 0 1 1 1 2 1 -5 1 -31 1 -81 1 -112 1 -101 0 -69 1 -38 1 -19 1 -11 1 -8 1 -4 1 -2 1 -1 1 0 1 -1 8 0 1 -1 1 -2 1 21 1 69 1 113 1 127M383 559l0 -88M383 559l1 40 1 16 1 7"/>
<path stroke="blue" d="M386 622l2 2 10 0 1 1 1 3 1 -10 1 -43 1 -91 1 -112 1 -94 1 -61 0 -32 1 -17 1 -11 1 -6 1 -3 1 -2 1 -1 1 0 1 -1 8 0 1 -2 1 2 1 30 1 81 1 122 1 121 1 75M429 605l0 -32M429 605l1 13 1 4 2 2 10 0 1 2 1 1 1 -15 1 -57 1 -100 1 -110"/>
<path stroke="blue" d="M449 345l1 -87 1 -52 1 -27 0 -14 1 -10 1 -5 1 -3 2 -2 1 0 1 -1 8 0 1 -3 1 8 1 43 1 93 1 127 1 112 1 61 1 24M475 620l0 -11M475 620l1 3 1 0 1 1 10 0 1 3 1 -2 1 -23 1 -69 1 -109 1 -106 1 -77 1 -44 1 -23 1 -12 0 -8 1 -5 1 -2"/>
<path stroke="blue" d="M500 147l2 -2 1 0 1 -1 7 0 1 -1 1 -2 1 14 1 57 1 104 1 129 1 99 1 50 1 19 1 8M521 623l0 -2M521 623l1 1 11 0M533 625l0 -1M533 625l1 2 1 -5 1 -33 1 -81 1 -112 1 -101 1 -68 1 -37 1 -19 1 -12 1 -7 0 -4 1 -2 1 -1 1 0 1 -1 8 0"/>
<path stroke="blue" d="M556 144l1 -1 1 -2 1 22 1 70 1 114 1 126 1 88 1 39 1 15 1 7 1 1M567 624l0 -1M567 624l11 0 1 1M579 628l0 -3M579 628l1 -10 1 -45 1 -91 1 -113 1 -93 1 -60 1 -32 1 -17 1 -10 1 -6 1 -3 0 -2 1 -1 1 0 1 -1 9 0 0 -2 1 2 1 32 1 82"/>
<path stroke="blue" d="M605 258l1 122 1 121 1 73 1 31 1 13 1 4 2 2 10 0 1 2 1 1 0 -16 1 -58 1 -101 1 -110 1 -85 1 -52 1 -26 1 -15 1 -9 1 -5 1 -3 1 -1 0 -1 1 0 1 -1 9 0 1 -3M648 150l0 -9M648 150l1 44 1 94 1 127 1 111 1 60 1 24 1 10 1 3 1 0 1 1"/>
<path stroke="blue" d="M658 624l10 0 1 3 1 -2 1 -24 0 -71 1 -109 1 -105 1 -76 1 -44 1 -22 1 -13 1 -8 1 -4 2 -4 1 0 1 -1 8 0 1 -1 1 -2 1 14M694 213l0 -58M694 213l1 106 1 128 1 99 1 48 1 19 1 8 1 2 1 1 10 0 1 1 1 3 1 -6 1 -34 1 -82 0 -113 1 -100"/>
<path stroke="blue" d="M718 293l1 -67 1 -37 1 -19 1 -11 1 -7 1 -4 1 -2 1 -1 1 0 1 -1 8 0 1 -1 1 -2 1 23 1 71M740 350l0 -115M740 350l1 126 1 86 1 38 1 16 1 6 2 2 10 0 1 1 1 3 1 -11 1 -46 1 -92 1 -112 0 -93 1 -59 1 -31 1 -17 1 -10 1 -6 1 -3 1 -2"/>
<path stroke="blue" d="M770 146l1 -1 1 0 1 -1 8 0 1 -2 1 3 1 32 1 84 1 122M786 503l0 -120M786 503l1 73 1 30 1 12 1 4 2 2 10 0 1 2 1 1 1 -17 1 -59 1 -102 1 -110 1 -84 0 -51 1 -26 1 -14 1 -9 1 -5 1 -3 2 -2 1 0 1 -1 8 0 1 -3 1 9 1 46 1 95 1 128"/>
<path stroke="blue" d="M831 419l1 109M832 587l0 -59M832 587l1 23 1 10 1 3 1 0 1 1 10 0 1 3 1 -3 1 -24 1 -72 1 -110 1 -105 1 -75 1 -42 0 -22 1 -13 1 -8 1 -4 2 -4 2 0 1 -1 7 0 1 -1 1 -2 1 15 1 59 1 107 1 128 1 98 1 47M878 613l0 -18M878 613l1 8"/>
<path stroke="blue" d="M879 621l1 2 1 1 10 0 1 1 1 3 1 -7 1 -35 1 -83 1 -112 1 -99 1 -67 1 -36 1 -19 0 -11 1 -7 1 -4 1 -2 1 -1 1 0 1 -1 8 0 2 -2 1 23 1 72 1 116 1 125 1 85 1 38 1 15M924 622l0 -6M924 622l2 2 10 0 1 1 1 3 1 -11 1 -47 1 -94 1 -112"/>
<path stroke="blue" d="M942 364l1 -92 1 -58 1 -31 1 -16 1 -10 0 -6 1 -3 1 -2 1 -1 1 0 1 -1 8 0 1 -2 1 3 1 34 1 85 1 123 1 119 1 71 1 29 1 12 1 4M970 623l0 -1"/>
<path stroke="#FFA500" d="M460 39l46 0"/>
<text stroke="none" fill="white" font-size="16" x="516" y="48">
out1
</text>
<path stroke="#FFA500" d="M50 521l0 -111 1 -103 1 -73 1 -41 1 -21 1 -11 1 -8 1 -4 1 -2 2 -2 1 0 0 -1 9 0 1 -3 1 11 1 48M73 297l0 -97M73 297l1 128 1 107 1 56 1 22 1 10 1 3 1 0 1 1 10 0 1 2 1 0 1 -16 1 -59 1 -102 0 -109 1 -85 1 -51 1 -26 1 -14"/>
<path stroke="#FFA500" d="M100 164l1 -9 1 -5 1 -3 2 -2 1 0 1 -1 8 0 1 -2 1 3 1 32 1 82M119 380l0 -121M119 380l1 121 1 73 1 31 1 13 1 4 2 2 10 0 1 1 1 3 1 -10 1 -42 1 -88 1 -113 0 -95 1 -62 1 -33 1 -17 1 -10 1 -7 1 -3 1 -2 1 -1 2 0 1 -1 7 0 1 -1"/>
<path stroke="#FFA500" d="M161 143l1 -2 1 19 1 65 1 111M165 463l0 -127M165 463l1 92 1 43 1 16 1 7 1 2 1 1 11 0 1 3 1 -4 1 -26 1 -74 1 -110 1 -104 0 -73 1 -42 1 -21 1 -12 1 -8 1 -4 1 -2 2 -2 1 0 1 -1 8 0 1 -3 1 10 1 47 1 96 1 127M211 529l0 -108"/>
<path stroke="#FFA500" d="M211 529l1 58 1 23 1 10 1 3 1 0 1 1 10 0 1 2 1 0 1 -15 1 -58 1 -100 1 -110 1 -86 0 -51 1 -27 1 -15 1 -9 1 -5 1 -3 2 -2 1 0 1 -1 8 0 1 -2 1 3 1 30 1 81 1 120 1 121M257 573l0 -76M257 573l1 31 1 13 1 5 2 2 10 0 1 1 1 2"/>
<path stroke="#FFA500" d="M274 627l1 -8 1 -40 1 -88 1 -112 1 -97 1 -62 0 -34 1 -18 1 -10 1 -6 1 -4 1 -2 1 -1 2 0 1 -1 7 0 1 -1 1 -2 1 18 1 64 1 109 1 127 1 94M303 597l0 -44M303 597l1 17 1 7 1 2 1 1 11 0 1 3 1 -3 1 -26 1 -72 1 -109 1 -105 1 -75"/>
<path stroke="#FFA500" d="M325 237l1 -42 0 -22 1 -12 1 -8 1 -4 1 -2 2 -2 1 0 1 -1 8 0 1 -2 1 8 1 45 1 95 1 127 1 110 1 59M349 610l0 -24M349 610l1 10 1 3 1 0 1 1 10 0 1 2 1 1 1 -15 1 -56 1 -100 1 -110 1 -87 1 -52 1 -28 0 -14 1 -9 1 -6 1 -3 2 -2"/>
<path stroke="#FFA500" d="M377 145l1 0 1 -1 8 0 1 -1 1 1 1 29 1 79 2 242 1 77 1 33M395 617l0 -13M395 617l1 5 2 2 10 0 1 1 1 2 1 -8 1 -38 1 -87 1 -112 1 -97 1 -64 1 -35 1 -17 0 -11 1 -6 1 -4 1 -2 1 -1 2 0 1 -1 7 0 1 -1 1 -2 1 17 1 62 1 108 1 128"/>
<path stroke="#FFA500" d="M438 456l1 95 1 45 1 18M441 621l0 -7M441 621l1 2 1 1 11 0 1 3 1 -3 1 -24 1 -71 1 -109 1 -105 1 -76 1 -43 1 -22 1 -13 0 -7 1 -5 1 -2 2 -2 1 0 1 -1 8 0 1 -2 1 8 1 43 1 94 1 126 1 111 1 61 1 24 1 10M487 622l0 -3M487 622l2 2"/>
<path stroke="#FFA500" d="M489 624l10 0 1 2 1 1 1 -15 1 -54 1 -98 1 -111 1 -88 1 -53 1 -28 1 -15 1 -9 0 -6 1 -3 2 -2 1 0 1 -1 8 0 1 -1 1 1 1 27 1 78 1 120 1 122 1 79 1 33 1 14 1 5M533 623l0 -1M533 623l1 1 10 0 1 1 1 2 1 -7 1 -37 1 -85 1 -113"/>
<path stroke="#FFA500" d="M550 385l1 -98 1 -64 1 -36 1 -18 1 -10 1 -7 0 -4 1 -2 1 -1 2 0 1 -1 7 0 1 -1 1 -2 1 16 1 60 1 107 1 128 1 97 1 46 1 18 1 8 1 2M579 624l0 -1M579 624l11 0 1 2 1 -2 1 -23 1 -69 1 -108 1 -106 1 -77 1 -44 1 -23 1 -12 1 -8"/>
<path stroke="#FFA500" d="M601 154l1 -5 0 -2 2 -2 1 0 1 -1 8 0 1 -2 1 7 1 42 1 92 1 126 1 113 1 62 1 25 1 10 1 3 1 1M625 624l0 -1M625 624l11 0M636 625l0 -1M636 625l1 2 1 -14 1 -53 1 -97 1 -111 1 -88 1 -55 1 -29 1 -15 1 -9 1 -6 1 -3 0 -1 1 -1"/>
<path stroke="#FFA500" d="M649 145l1 0 1 -1 8 0 1 -1 1 0 1 27 1 76 1 119 1 123 1 80 1 35 1 14 1 5 2 2 10 0 1 1M682 627l0 -2M682 627l1 -7 1 -36 1 -83 1 -112 1 -99 1 -66 1 -36 1 -18 1 -11 1 -7 1 -4 1 -2 0 -1 2 0 1 -1 8 0 0 -1 1 -2 1 15 1 59 1 106"/>
<path stroke="#FFA500" d="M709 321l1 127 1 99 1 47 1 19 1 8 1 2 1 1 11 0 1 2 0 -1 1 -22 1 -68 1 -108 1 -106 1 -78 1 -45 1 -23 1 -13 1 -8 1 -5 1 -2 1 -1 0 -1 1 0 1 -1 9 0 0 -2 1 7 1 40 1 91 1 125 1 114 1 64 1 25 1 11 1 3 2 2 10 0 1 1 1 2 0 -13"/>
<path stroke="#FFA500" d="M774 614l1 -51 1 -97 1 -111 1 -89 1 -56 1 -29 1 -15 1 -10 1 -5 1 -3 1 -2 2 -2 9 0 1 -1 1 25 1 75 1 118 1 124 1 82 1 35 1 14 1 6 2 2 10 0 1 1 1 2 1 -6 0 -35 1 -82 1 -112 1 -100 1 -67 1 -36 1 -19 1 -11 1 -7 1 -4 1 -2 1 -1"/>
<path stroke="#FFA500" d="M831 145l1 0 1 -1 8 0 1 -1 1 -2M843 156l0 -15M843 156l1 56 1 105 1 128 1 99 1 50 1 18 1 9 1 2 1 1 11 0 1 2 1 -1 1 -21 0 -67 1 -106 1 -107 1 -79 1 -46 1 -24 1 -13 1 -8 1 -5 1 -2 2 -2 1 0 0 -1 9 0 1 -2 1 6M889 187l0 -39"/>
<path stroke="#FFA500" d="M889 187l1 89 1 125 1 115 1 66 1 26 1 11 1 3 2 2 10 0 1 1 1 2 1 -12 1 -50 0 -95 1 -112 1 -90 1 -57 1 -29 1 -16 1 -9 1 -6 1 -3 1 -2 1 -1 1 0 1 -1 8 0 2 -2 1 25M935 240l0 -73M935 240l1 117 1 124 1 84 1 36 1 15 1 6 2 2"/>
<path stroke="#FFA500" d="M943 624l10 0 1 1 1 2 1 -6 1 -33 1 -81 0 -112 1 -100 1 -68 1 -37 1 -20 1 -11 1 -7 1 -4 1 -2 1 -1 2 0 1 -1"/>
<path stroke="green" d="M50 39l46 0"/>
<text stroke="none" fill="white" font-size="16" x="106" y="48">
out2
</text>
<path stroke="green" d="M50 144l2 0 1 -1 1 3 1 30 1 76 1 117 1 120 1 79 1 34 1 14M61 622l0 -6M61 622l2 2 10 0 1 1 1 0 1 -15 1 -54 1 -98 1 -110 1 -87 1 -53 1 -28 1 -15 1 -9 0 -5 1 -3 1 -2 1 -1 2 0 1 -1 7 0 1 -2 1 11 1 44 1 91 1 123 1 110 1 62"/>
<path stroke="green" d="M104 583l1 25 1 11 1 3M107 623l0 -1M107 623l1 1 11 0M119 626l0 -2M119 626l1 -4 1 -25 1 -69 1 -108 1 -106 1 -75 1 -43 1 -22 1 -12 1 -8 1 -5 0 -2 2 -2 2 0 1 -1 6 0 1 1 0 -1 1 -2 1 19 1 60 1 105 1 125 1 96 1 47 1 19 1 8 1 2"/>
<path stroke="green" d="M152 623l1 1 11 0 1 3 0 -9 1 -37 1 -84 1 -112 1 -98 1 -64 1 -35 1 -18 1 -11 1 -7 1 -4 1 -1 0 -1 1 -1 2 0 1 -1 7 0 1 -1M188 146l0 -3M188 146l1 28 1 76 1 116 1 121 1 79 1 36 1 14 1 6 2 2 10 0 2 2 1 -15 0 -53 1 -97 1 -111"/>
<path stroke="green" d="M213 350l1 -87 1 -54 1 -29 1 -14 1 -10 1 -5 1 -3 1 -2 1 -1 1 0 1 -1 8 0 1 -1 1 9M234 195l0 -43M234 195l1 90 1 123 1 111 1 63 1 26 1 11 1 3 2 2 10 0 1 2 1 -3 1 -25 1 -68 0 -108 1 -105 1 -76 1 -44 1 -23 1 -12 1 -8 1 -5 1 -2"/>
<path stroke="green" d="M265 147l2 -2 1 0 1 -1 6 0 1 1 1 -1 1 -2 1 18 1 59M280 323l0 -104M280 323l1 125 1 97 1 48 1 19 1 9 1 2 1 1 11 0 1 3 1 -9 1 -36 1 -83 1 -112 0 -98 1 -65 1 -36 1 -18 1 -11 1 -7 1 -4 3 -3 2 0 0 -1 6 0 1 1 1 -2 1 2 1 28 1 74"/>
<path stroke="green" d="M325 247l1 115M326 484l0 -122M326 484l1 81 1 36 1 15 1 6 2 2 10 0 2 2 1 -15 1 -51 1 -96 1 -111 1 -88 0 -55 1 -29 1 -15 1 -10 1 -5 1 -3 1 -2 1 -1 2 0 1 -1 7 0 1 -1 1 9 1 41 1 89 1 122 1 113M372 581l0 -64M372 581l1 26 1 12"/>
<path stroke="green" d="M374 619l1 3 2 2 10 0 1 2 1 -3 1 -24 1 -67 1 -107 1 -106 1 -77 1 -44 0 -23 1 -13 1 -8 1 -5 1 -2 2 -2 2 0 1 -1 5 0 1 1 1 -1 1 -2 1 17 1 59 1 102 1 125 1 98 1 49M418 612l0 -20M418 612l1 8 1 3 1 0 1 1 10 0 1 3 1 -8 1 -36"/>
<path stroke="green" d="M435 583l1 -81 1 -112 1 -99 1 -66 1 -36 1 -19 0 -11 1 -7 1 -3 1 -2 2 -2 2 0 1 -1 5 0 1 1 1 -2 1 2 1 27 1 73 1 114 1 122 1 83 1 37 1 15M464 622l0 -6M464 622l2 2 10 0 2 2 1 -14 1 -50 1 -95 1 -111 1 -89 1 -56 1 -30 1 -15"/>
<path stroke="green" d="M486 166l1 -9 0 -6 1 -3 1 -2 1 -1 2 0 1 -1 7 0 1 -1 1 8 1 41 1 87 1 122 1 113 1 66 1 27 1 11 1 4M510 623l0 -1M510 623l1 1 10 0 1 2 1 -3 1 -23 1 -66 2 -212 1 -78 1 -46 1 -23 1 -13 1 -8 1 -4 0 -3 2 -2 2 0 1 -1 6 0M544 145l0 -1"/>
<path stroke="green" d="M544 145l1 -1 1 -2 1 17 1 57 1 101 1 125 1 100 1 50 1 20 1 8 1 3 1 0M556 624l0 -1M556 624l11 0M567 626l0 -2M567 626l1 -7 1 -34 1 -81 1 -111 1 -100 1 -67 1 -37 1 -19 1 -11 1 -7 1 -3 1 -2 0 -1 1 -1 2 0 1 -1 6 0 1 1 0 -2"/>
<path stroke="green" d="M590 143l1 1 1 26 1 73 1 113 1 123 1 83 1 38 1 15 1 6 1 2 1 1 10 0 2 2 0 -13 1 -49 1 -94 1 -111 1 -91 1 -56 1 -30 1 -16 1 -9 1 -6 1 -3 1 -2 1 -1 1 0 1 -1 8 0 1 -1M636 150l0 -7M636 150l1 40 1 86 1 122 1 114 1 67 1 27 1 12"/>
<path stroke="green" d="M643 618l1 4 2 2 10 0 1 2 1 -3 1 -22 0 -64 1 -106 1 -107 1 -79 1 -46 1 -23 1 -13 1 -9 1 -4 1 -3 2 -2 1 0 1 -1 6 0 1 1 1 -1 1 -2 1 16M682 214l0 -56M682 214l1 100 1 125 1 101 1 51 1 20 1 9 1 3 1 0 1 1 10 0 1 2 1 -7 1 -33"/>
<path stroke="green" d="M704 586l1 -79 0 -112 1 -100 1 -68 1 -37 1 -19 1 -11 1 -7 1 -4 1 -2 2 -2 2 0 0 -1 6 0 1 1 1 -2 1 1 1 25 1 71M728 353l0 -113M728 353l1 123 1 85 1 38 1 16 1 6 1 2 1 1 10 0 2 2 1 -13 1 -47 1 -93 1 -112 0 -91 1 -57 1 -30 1 -16"/>
<path stroke="green" d="M754 167l1 -10 1 -6 1 -3 1 -2 1 -1 2 0 1 -1 7 0 1 -1 1 7 1 38 1 85 1 122M774 509l0 -114M774 509l1 69 1 28 1 12 1 4 2 2 10 0 1 2 1 -2 1 -21 1 -64 1 -105 1 -107 1 -80 0 -47 1 -24 1 -13 1 -8 1 -5 1 -3 2 -2 2 0 1 -1 5 0 1 1"/>
<path stroke="green" d="M813 145l1 -1 1 -2 1 15 1 55 1 99 1 125 1 102M820 590l0 -52M820 590l1 21 1 9 1 3 1 0 1 1 10 0 1 2 1 -6 1 -32 1 -79 1 -111 1 -101 1 -68 1 -38 0 -20 1 -11 1 -7 1 -4 1 -2 2 -2 2 0 1 -1 5 0 1 1 1 -2 1 1 1 24 1 70 1 112 1 123"/>
<path stroke="green" d="M864 473l1 86 1 40M866 615l0 -16M866 615l1 6 1 2 1 1 10 0 2 2 1 -12 1 -46 1 -92 1 -112 1 -92 1 -58 1 -31 1 -16 0 -10 1 -6 1 -3 1 -2 1 -1 2 0 1 -1 7 0 1 -1 1 6 1 37 1 84 1 121 1 116 1 69 1 29 1 13M912 622l0 -4M912 622l2 2"/>
<path stroke="green" d="M914 624l10 0 1 2 1 -2 1 -20 1 -63 1 -104 1 -108 1 -80 1 -48 1 -24 1 -14 1 -8 0 -5 1 -3 2 -2 2 0 1 -1 6 0M947 145l0 -1M947 145l1 -1 1 -2 1 15 1 53 1 98 1 125 1 103 1 53 1 22 1 9 1 3 1 1 11 0M970 625l0 -1"/>
<path stroke="#FFC0C5" d="M460 55l46 0"/>
<text stroke="none" fill="white" font-size="16" x="516" y="64">
out3
</text>
<path stroke="#FFC0C5" d="M50 145l0 -1M50 145l1 -1 1 -2 1 18 1 61 1 105 1 125 1 96 1 47 1 19 1 8 1 2M61 624l0 -1M61 624l12 0M73 627l0 -3M73 627l1 -8 1 -37 1 -82 1 -112 1 -98 1 -66 1 -36 1 -18 1 -11 1 -7 1 -4 0 -1 2 -2 1 0 1 -1 8 0 0 -1 1 3 1 29"/>
<path stroke="#FFC0C5" d="M98 175l1 76 1 117 1 121 1 78 1 35 1 14 1 6 2 2 10 0 2 2 0 -15 1 -52 1 -96 1 -111 1 -88 1 -55 1 -28 1 -15 1 -10 1 -5 1 -3 1 -2 0 -1 2 0 1 -1 8 0 1 -2M142 152l0 -10M142 152l1 44 1 91 1 124 1 110 1 62 1 25 1 11 1 3 2 2"/>
<path stroke="#FFC0C5" d="M152 624l10 0 1 2 1 -3 1 -24 0 -67 1 -107 1 -106 1 -77 1 -44 1 -23 1 -13 1 -8 1 -5 1 -2 2 -2 1 0 1 -1 6 0 1 1 1 -1 1 -2 1 18M188 221l0 -61M188 221l1 105 1 125 1 96 1 47 1 19 1 8 1 2 1 1 11 0 1 3 1 -8 1 -37 1 -82 0 -112"/>
<path stroke="#FFC0C5" d="M211 388l1 -99 1 -65 1 -36 1 -18 1 -11 1 -7 1 -4 1 -2 1 0 1 -1 1 0 0 -1 8 0 1 -1 1 3 1 29 1 76M234 368l0 -117M234 368l1 121 1 78 1 35 1 14 1 6 2 2 10 0 2 2 1 -15 1 -52 1 -96 1 -111 0 -88 1 -55 1 -28 1 -15 1 -10 1 -5"/>
<path stroke="#FFC0C5" d="M262 151l1 -3 1 -2 1 -1 2 0 1 -1 7 0 1 -2 1 10 1 44 1 91 1 124M280 521l0 -110M280 521l1 62 1 25 1 11 1 3 2 2 10 0 1 2 1 -3 1 -24 1 -68 1 -107 1 -106 1 -76 0 -44 1 -23 1 -13 1 -8 1 -5 1 -2 2 -2 2 0 1 -1 5 0 1 1 1 -1 1 -2"/>
<path stroke="#FFC0C5" d="M321 142l1 18 1 61 1 105 1 126 1 95M326 594l0 -47M326 594l1 19 1 8 1 2 1 1 11 0 1 3 1 -8 1 -37 1 -83 1 -112 1 -98 1 -65 1 -36 0 -18 1 -11 1 -7 1 -4 1 -2 1 0 1 -1 1 0 1 -1 7 0 1 -1 1 3 1 29 1 76 1 117 1 121 1 79 1 34"/>
<path stroke="#FFC0C5" d="M372 616l0 -14M372 616l1 6 2 2 10 0 2 2 1 -15 1 -52 1 -97 1 -111 1 -87 1 -55 1 -28 1 -15 0 -10 1 -5 1 -3 1 -2 1 -1 2 0 1 -1 7 0 1 -2 1 10 1 44 1 91 1 124 1 110 1 62 1 25 1 11M418 622l0 -3M418 622l2 2 10 0 1 2 1 -3 1 -24"/>
<path stroke="#FFC0C5" d="M433 599l1 -68 1 -107 1 -106 1 -76 1 -45 1 -22 1 -13 1 -8 0 -5 1 -2 2 -2 2 0 1 -1 5 0 1 1 1 -1 1 -2 1 18 1 61 1 106 1 125 1 95 1 47 1 19 1 8 1 2M464 624l0 -1M464 624l11 0 1 3 1 -8 1 -37 1 -83 1 -112 1 -98 1 -65 1 -36"/>
<path stroke="#FFC0C5" d="M483 188l1 -18 1 -11 1 -7 1 -4 0 -2 1 0 1 -1 1 0 1 -1 7 0 1 -1 1 3 1 29 1 77 1 116 1 121 1 79 1 34 1 14 1 6 2 2 10 0 1 1M521 626l0 -1M521 626l1 -15 1 -52 1 -97 1 -111 1 -88 1 -54 1 -28 1 -15 1 -10 1 -5 1 -3 1 -2 0 -1"/>
<path stroke="#FFC0C5" d="M533 145l2 0 1 -1 8 0 0 -2 1 10 1 44 1 92 1 123 1 110 1 62 1 25 1 11 1 3 2 2 10 0 1 2 1 -3 0 -24 1 -68 1 -107 1 -106 1 -77 1 -44 1 -22 1 -13 1 -8 1 -5 1 -2 2 -2 1 0 1 -1 6 0 1 1 1 -1 1 -2M590 160l0 -18M590 160l1 62 1 105"/>
<path stroke="#FFC0C5" d="M592 327l1 125 1 95 1 47 1 19 1 8 1 2 1 1 11 0 1 3 1 -9 1 -36 0 -83 1 -112 1 -98 1 -65 1 -36 1 -18 1 -11 1 -7 1 -4 1 -2 1 -1 2 0 0 -1 8 0 1 -1 1 3 1 29M636 252l0 -77M636 252l1 117 1 120 1 79 1 34 1 14 1 6 2 2 10 0 2 2"/>
<path stroke="#FFC0C5" d="M656 626l1 -15 1 -52 1 -97 0 -111 1 -88 1 -54 1 -28 1 -15 1 -10 1 -5 1 -3 1 -2 1 -1 2 0 1 -1 7 0 1 -2 1 10 1 45 1 91M682 412l0 -124M682 412l1 110 1 61 1 25 1 11 1 3 2 2 10 0 1 2 1 -3 1 -24 1 -68 1 -107 1 -106 0 -77 1 -44"/>
<path stroke="#FFC0C5" d="M706 197l1 -22 1 -13 1 -8 1 -5 1 -2 2 -2 2 0 1 -1 5 0 1 1 1 -1 1 -2 1 19 1 61 1 105 1 125M728 547l0 -95M728 547l1 47 1 19 1 8 1 2 1 1 11 0 1 3 1 -9 1 -36 1 -83 1 -112 1 -98 1 -65 0 -36 1 -18 1 -11 1 -7 1 -4 1 -2 1 -1"/>
<path stroke="#FFC0C5" d="M757 145l2 0 1 -1 7 0 1 -1 1 3 1 29 1 77 1 117 1 120 1 79M774 602l0 -34M774 602l1 14 1 6 2 2 10 0 2 2 1 -15 1 -52 1 -97 1 -111 1 -88 1 -54 1 -28 0 -15 1 -10 1 -5 1 -3 1 -2 1 -1 2 0 1 -1 7 0 1 -2 1 10 1 45 1 91 1 124"/>
<path stroke="#FFC0C5" d="M817 412l1 110 1 61 1 25M820 619l0 -11M820 619l1 3 2 2 10 0 1 2 1 -3 1 -24 1 -68 1 -107 1 -106 1 -77 1 -44 1 -22 1 -13 0 -8 1 -5 1 -2 2 -2 2 0 1 -1 5 0 1 1 1 -1 1 -2 1 19 1 61 1 105 1 125 1 96 1 46 1 19 1 8M866 623l0 -2"/>
<path stroke="#FFC0C5" d="M866 623l1 1 11 0 1 3 1 -9 1 -36 1 -83 1 -112 1 -98 1 -65 1 -36 1 -18 1 -11 1 -7 0 -4 1 -2 1 -1 2 0 1 -1 7 0 1 -1 1 3 1 29 1 77 1 117 1 121 1 78 1 34 1 14 1 6 1 1M912 624l0 -1M912 624l11 0 1 1M924 626l0 -1M924 626l1 -15"/>
<path stroke="#FFC0C5" d="M925 611l1 -53 1 -96 1 -111 1 -88 1 -54 1 -28 1 -15 1 -10 1 -5 1 -3 0 -2 1 -1 2 0 1 -1 8 0 0 -2 1 10 1 45 1 91 1 124 1 110 1 61 1 25 1 11 1 3 2 2 10 0 1 2 1 -3 0 -9"/>
<path stroke="#A52A2A" d="M50 55l46 0"/>
<text stroke="none" fill="white" font-size="16" x="106" y="64">
out4
</text>
<path stroke="#A52A2A" d="M50 144l1 -1 1 1 1 24 1 71 1 112 1 123 1 86 1 39 1 16 1 6 1 2M61 624l0 -1M61 624l11 0 1 1 1 -16 1 -56 1 -100 1 -110 1 -85 1 -52 1 -27 1 -14 1 -9 1 -6 1 -3 0 -1 1 -1 2 0 1 -1 6 0 1 1 1 -1 0 -2 1 14 1 51 1 98 1 125 1 104"/>
<path stroke="#A52A2A" d="M101 534l1 54 1 22 1 10 1 3 1 0 1 1 10 0 1 3 1 -9 0 -37 1 -84 1 -112 1 -98 1 -64 1 -35 1 -19 1 -10 1 -7 1 -4 1 -2 1 0 0 -1 1 0 1 -1 8 0 1 -1 1 4M142 180l0 -33M142 180l1 80 1 119 1 118 1 75 1 32 1 13 1 5 2 2 10 0 1 2"/>
<path stroke="#A52A2A" d="M162 626l1 -3 1 -22 1 -67 0 -106 1 -106 1 -78 1 -46 1 -23 1 -13 1 -8 1 -5 1 -2 2 -2 1 0 1 -1 6 0 1 1 2 -2 1 19 1 63M188 331l0 -106M188 331l1 125 1 94 1 45 1 18 1 8 1 2 1 1 10 0 2 2 1 -13 1 -48 1 -93 1 -112 0 -90 1 -57"/>
<path stroke="#A52A2A" d="M212 213l1 -31 1 -15 1 -10 1 -6 1 -3 1 -2 1 -1 2 0 1 -1 7 0 1 -2 1 10 1 43 1 90 1 123M234 519l0 -111M234 519l1 63 1 26 1 11 1 3 2 2 10 0 1 2 1 -5 1 -31 1 -76 1 -111 1 -102 1 -70 0 -39 1 -20 1 -12 1 -7 1 -4 1 -2 2 -2"/>
<path stroke="#A52A2A" d="M264 145l2 0 1 -1 6 0 1 -1 1 2 1 26 1 73 1 114 1 122 1 83M280 600l0 -37M280 600l1 16 1 6 2 2 10 0 1 1 1 0 1 -18 1 -59 1 -101 1 -109 1 -84 1 -50 1 -26 0 -14 1 -9 1 -5 1 -3 2 -2 2 0 1 -1 5 0 1 1 1 -1 1 -2 1 15 1 55 1 99"/>
<path stroke="#A52A2A" d="M322 311l1 126 1 101 1 52 1 21M326 620l0 -9M326 620l1 3 1 0 1 1 9 0 1 1 1 2 1 -10 1 -40 1 -86 1 -113 1 -95 1 -63 1 -34 1 -17 1 -11 0 -6 1 -4 1 -2 1 -1 2 0 1 -1 7 0 1 -1 1 5 1 36 1 82 1 120 1 117 1 72 1 30 1 13 1 4M372 623l0 -1"/>
<path stroke="#A52A2A" d="M372 623l1 1 10 0 1 2 1 -3 1 -25 1 -69 1 -107 1 -106 1 -76 1 -43 1 -23 1 -12 1 -8 1 -5 0 -2 2 -2 2 0 1 -1 6 0M406 145l0 -1M406 145l1 -2 1 0 1 21 1 65 1 109 1 125 1 90 1 44 1 17 1 7 1 2 1 1 10 0 1 1M429 626l0 -1M429 626l1 -14"/>
<path stroke="#A52A2A" d="M430 612l1 -51 1 -95 1 -112 1 -88 1 -56 1 -29 1 -15 1 -10 1 -5 1 -3 1 -2 0 -1 2 0 1 -1 8 0 0 -2 1 11 1 46 1 93 1 124 1 108 1 60 1 25 1 10 1 3 2 2 10 0 1 2 1 -6 0 -33 1 -79 1 -111 1 -101 1 -68 1 -38 1 -19 1 -11 1 -7 1 -4"/>
<path stroke="#A52A2A" d="M484 149l1 -2 3 -3 8 0 1 -1 1 2M498 174l0 -29M498 174l1 75 1 116 1 121 1 80 1 36 1 14 1 6 2 2 10 0 1 2 1 -2 1 -19 1 -61 0 -103 1 -109 1 -82 1 -48 1 -25 1 -13 1 -9 1 -5 1 -3 2 -2 2 0 0 -1 6 0 1 1 1 -1 1 -2 1 17 1 57M544 318l0 -102"/>
<path stroke="#A52A2A" d="M544 318l1 126 1 98 1 50 1 20 1 8 1 3 1 1 10 0 1 1 1 2 1 -11 1 -43 1 -89 1 -112 0 -94 1 -61 1 -32 1 -17 1 -10 1 -7 1 -3 1 -2 1 -1 2 0 1 -1 7 0 1 -1 1 7 1 37 1 85 1 122M590 509l0 -115M590 509l1 68 1 29 1 12 1 4 2 2 10 0"/>
<path stroke="#A52A2A" d="M606 624l1 2 1 -4 1 -26 1 -72 1 -109 1 -104 1 -74 0 -42 1 -22 1 -12 1 -7 1 -5 1 -2 2 -2 2 0 1 -1 5 0 1 1 1 -2 1 0 1 23 1 68 1 111 1 124 1 88M636 598l0 -41M636 598l1 16 1 7 1 2 1 1 10 0 2 2 1 -16 1 -53 1 -98 1 -110 1 -87"/>
<path stroke="#A52A2A" d="M657 262l1 -54 1 -28 0 -15 1 -9 1 -6 2 -4 1 -1 2 0 1 -1 7 0 1 -2 1 13 1 48 1 95 1 125 1 106 1 58 1 23M682 620l0 -10M682 620l1 2 2 2 10 0 1 3 1 -8 1 -35 1 -82 1 -112 1 -98 1 -67 1 -36 1 -19 1 -11 0 -7 1 -4 3 -3 1 0 1 -1"/>
<path stroke="#A52A2A" d="M711 144l7 0 1 -1 1 3 1 31 1 78 1 117 1 120 1 77 1 34 1 14 1 5M728 623l0 -1M728 623l1 1 11 0M740 626l0 -2M740 626l1 -2 1 -21 1 -64 1 -105 1 -107 1 -80 1 -47 1 -24 1 -13 1 -8 1 -5 0 -3 2 -2 2 0 1 -1 6 0 1 1 0 -1 1 -2"/>
<path stroke="#A52A2A" d="M764 142l1 18 1 61 1 104 1 125 1 96 1 48 1 19 1 8 1 2 1 1 10 0 2 2 0 -11 1 -46 1 -91 1 -112 1 -92 1 -59 1 -31 1 -17 1 -10 1 -6 1 -3 1 -2 0 -1 2 0 1 -1 8 0 1 -1M809 151l0 -8M809 151l1 40 1 88 1 122 1 113 1 66 1 27 1 11"/>
<path stroke="#A52A2A" d="M816 618l1 4 2 2 10 0 1 2 1 -5 1 -28 0 -74 1 -110 1 -103 1 -72 1 -41 1 -20 1 -12 1 -8 1 -4 1 -2 2 -2 1 0 1 -1 7 0 1 -1 1 1 1 25M855 239l0 -70M855 239l1 113 1 123 1 85 1 39 1 16 1 6 1 2 1 1 10 0 1 1 1 0 1 -16 1 -56 1 -100"/>
<path stroke="#A52A2A" d="M878 453l0 -110 1 -85 1 -52 1 -27 1 -14 1 -9 1 -6 1 -3 2 -2 2 0 0 -1 6 0 1 1 1 -1 1 -2 1 14 1 52 1 97M901 430l0 -125M901 430l1 104 1 55 1 21 1 10 1 3 1 0 1 1 9 0 1 1 1 2 1 -9 1 -38 1 -84 1 -112 1 -97 0 -64 1 -36 1 -18"/>
<path stroke="#A52A2A" d="M926 169l1 -10 1 -7 1 -4 1 -2 1 0 1 -1 1 0 1 -1 7 0 1 -1 1 4 1 33 1 80 2 238M947 572l0 -74M947 572l1 32 1 13 1 5 2 2 10 0 1 2 1 -3 1 -23 1 -66 1 -106 1 -107 1 -78 1 -45 0 -13"/>
<path stroke="#F0E68C" d="M460 71l46 0"/>
<text stroke="none" fill="white" font-size="16" x="516" y="80">
out5
</text>
<path stroke="#F0E68C" d="M50 320l0 -78 1 -45 1 -23 1 -12 1 -8 1 -5 1 -2 2 -2 2 0 1 -1 7 0 1 -2 1 10 1 48 1 96 1 126M73 530l0 -108M73 530l1 57 1 23 1 10 1 2 2 2 10 0 1 2 1 -1 1 -21 1 -66 1 -106 1 -108 1 -79 0 -46 1 -24 1 -13 1 -8 1 -4 1 -3 2 -2"/>
<path stroke="#F0E68C" d="M103 145l2 0 1 -1 7 0 1 -2 1 9 1 45 1 94 1 126 1 110M119 586l0 -60M119 586l1 23 1 10 1 3 2 2 10 0 1 2 1 -1 1 -19 1 -64 1 -105 1 -108 1 -81 1 -48 0 -24 1 -13 1 -8 1 -5 1 -3 2 -2 2 0 1 -1 7 0 1 -2 1 8 1 43 1 92 1 125 1 112"/>
<path stroke="#F0E68C" d="M164 522l1 62M165 608l0 -24M165 608l1 11 1 3 2 2 10 0 1 2 1 0 1 -19 1 -61 1 -104 1 -109 1 -82 1 -49 1 -25 0 -14 1 -8 1 -5 1 -3 2 -2 2 0 1 -1 7 0 1 -2 1 7 1 41 1 90 1 124 1 114 1 64 1 26M211 619l0 -11M211 619l1 3 2 2"/>
<path stroke="#F0E68C" d="M214 624l10 0 1 2 1 0 1 -17 1 -59 1 -103 1 -109 1 -84 1 -50 1 -26 1 -14 0 -9 1 -5 1 -3 2 -2 2 0 1 -1 7 0 1 -2 1 6 1 39 1 88 1 123 1 115 1 67 1 27 1 11M257 622l0 -4M257 622l2 2 10 0 2 2 1 -16 1 -57 1 -101 1 -110 1 -85"/>
<path stroke="#F0E68C" d="M276 257l1 -52 1 -27 1 -14 1 -8 0 -6 1 -3 2 -2 2 0 1 -1 7 0 1 -2 1 5 1 37 1 85 1 123 1 117 1 69 1 28 1 12 1 4M303 623l0 -1M303 623l1 1 10 0 1 1 1 2 1 -15 1 -55 1 -99 1 -111 1 -87 1 -53 1 -28 1 -14 1 -9 1 -6 0 -2 1 -2"/>
<path stroke="#F0E68C" d="M327 146l1 -1 2 0 1 -1 7 0 1 -1 1 4 1 34 1 83 1 122 1 118 1 72 1 29 1 13 1 4 1 1M349 624l0 -1M349 624l11 0M360 625l0 -1M360 625l1 2 1 -14 1 -53 1 -97 1 -111 1 -89 1 -54 1 -29 1 -15 1 -9 1 -5 1 -3 0 -2 1 -1 2 0 1 -1 7 0"/>
<path stroke="#F0E68C" d="M383 144l1 -1 1 3 1 32 1 81 1 121 1 120 1 74 1 31 1 12 1 5 2 2 10 0 1 1M406 627l0 -2M406 627l1 -13 1 -50 1 -96 1 -112 1 -89 1 -56 1 -30 1 -15 1 -9 1 -6 1 -3 1 -2 0 -1 2 0 1 -1 8 0 0 -1 1 2 1 30 1 79 1 120 1 121 1 76"/>
<path stroke="#F0E68C" d="M435 571l1 33 1 13 1 5 2 2 10 0 1 1 1 2 0 -12 1 -48 1 -94 1 -112 1 -91 1 -57 1 -31 1 -16 1 -9 1 -6 1 -3 1 -2 1 -1 1 0 1 -1 8 0 1 -1M475 144l0 -1M475 144l1 28 1 77 1 119 1 122 1 79 1 34 1 13 1 6 2 2 10 0 1 1 1 2 1 -10"/>
<path stroke="#F0E68C" d="M498 617l0 -46 1 -92 1 -113 1 -92 1 -59 1 -32 1 -16 1 -10 1 -6 1 -3 1 -2 1 -1 1 0 1 -1 8 0 1 -1 1 0M521 169l0 -26M521 169l1 76 1 116 1 124 1 81 1 36 1 14 1 6 2 2 10 0 1 1 1 2 1 -9 1 -44 0 -90 1 -112 1 -95 1 -60 1 -33"/>
<path stroke="#F0E68C" d="M548 184l1 -16 1 -10 1 -7 1 -3 1 -2 1 -1 2 0 0 -1 8 0 1 -1 1 0 1 24M567 240l0 -73M567 240l1 115 1 124 1 84 1 38 1 14 1 6 1 2 1 1 10 0 1 1 1 2 1 -9 1 -40 1 -88 0 -113 1 -96 1 -62 1 -34 1 -17 1 -10 1 -6 1 -4 1 -2 1 -1"/>
<path stroke="#F0E68C" d="M599 145l2 0 1 -1 7 0 2 -2 1 23 1 70M613 349l0 -114M613 349l1 125 1 86 1 40 1 15 1 6 1 2 1 1 10 0 1 1 1 2 1 -8 1 -38 1 -86 1 -112 0 -98 1 -64 1 -35 1 -17 1 -11 1 -6 1 -4 1 -2 1 -1 2 0 1 -1 6 0 1 1 1 -2 1 -1 1 21 1 67"/>
<path stroke="#F0E68C" d="M658 230l1 112M659 468l0 -126M659 468l1 89 1 41 1 16 1 7 1 2 1 1 11 0 1 3 1 -7 1 -36 1 -83 1 -113 1 -98 0 -66 1 -36 1 -18 1 -11 1 -7 1 -4 1 -1 1 -2 2 0 1 -1 6 0 1 1 1 -2 1 -1 1 19 1 65 1 110 1 126M705 554l0 -92M705 554l1 43"/>
<path stroke="#F0E68C" d="M706 597l1 17 1 7 1 2 1 1 11 0 1 3 1 -6 1 -33 1 -82 1 -112 1 -100 1 -68 0 -37 1 -19 1 -11 1 -7 1 -3 1 -2 2 -2 1 0 1 -1 6 0 1 1 2 -4 1 18 1 63 1 107 1 127 1 95M751 596l0 -45M751 596l1 17 1 8 1 2 1 1 11 0 1 3 1 -5 1 -31"/>
<path stroke="#F0E68C" d="M769 591l1 -79 1 -112 1 -101 1 -70 1 -39 0 -19 1 -11 1 -7 1 -4 1 -2 2 -2 1 0 1 -1 6 0 1 1 1 -1 1 -3 1 17 1 59 1 106 1 127 1 97 1 47M797 613l0 -19M797 613l1 8 1 2 1 1 11 0 1 3 1 -5 1 -29 1 -76 1 -111 1 -103 1 -71 1 -40"/>
<path stroke="#F0E68C" d="M819 192l1 -20 0 -12 1 -7 1 -4 1 -2 2 -2 1 0 1 -1 8 0 1 -3 1 15 1 57 1 104 1 127 1 100 1 49 1 19M843 620l0 -8M843 620l1 3 1 0 1 1 10 0 1 2 1 -3 1 -27 1 -74 1 -110 1 -104 1 -73 1 -42 1 -21 1 -11 0 -8 1 -4 1 -2 2 -2 1 0"/>
<path stroke="#F0E68C" d="M871 145l1 -1 8 0 1 -3 1 14 1 54 1 102 1 127 1 102 1 52 1 19 1 9M889 623l0 -3M889 623l1 0 1 1 10 0 1 2 1 -3 1 -25 1 -71 1 -110 1 -105 1 -74 1 -43 1 -22 1 -12 1 -7 0 -5 1 -2 2 -2 1 0 1 -1 8 0 1 -2 1 12 1 52 1 99 1 127"/>
<path stroke="#F0E68C" d="M930 432l1 104 1 54 1 21 1 9 1 3 1 1 11 0M947 626l0 -2M947 626l1 -2 1 -23 1 -70 1 -108 1 -106 1 -77 1 -44 1 -22 1 -12 1 -8 1 -5 0 -2 2 -2 1 0 1 -1 8 0"/>
<path stroke="#DDA0DD" d="M50 71l46 0"/>
<text stroke="none" fill="white" font-size="16" x="106" y="80">
out6
</text>
<path stroke="#DDA0DD" d="M50 145l0 -1 6 0 1 1 2 -2 1 17 1 57M61 319l0 -102M61 319l1 124 1 98 1 50 1 21 1 9 1 2 1 1 11 0 1 2 1 -8 1 -38 1 -83 1 -112 0 -97 1 -65 1 -35 1 -18 1 -11 1 -7 1 -4 1 -2 1 -1 3 0 1 -1 6 0 1 -1 1 7 1 36 1 83 1 119M107 504l0 -116"/>
<path stroke="#DDA0DD" d="M107 504l1 71 1 30 1 13 1 4 2 2 10 0 1 2 1 -3 1 -22 1 -64 1 -105 1 -107 1 -79 0 -46 1 -24 1 -13 1 -9 1 -5 1 -2 2 -2 2 0 1 -1 5 0 1 1 2 -2 1 21 1 64 1 107 1 124 1 92M153 595l0 -44M153 595l1 19 1 7 1 2 1 1 10 0 2 2 1 -11"/>
<path stroke="#DDA0DD" d="M170 615l1 -44 1 -89 1 -112 1 -94 1 -59 1 -32 0 -17 1 -10 1 -7 1 -3 1 -2 1 -1 2 0 1 -1 5 0 1 1 2 -2 1 9 1 43 1 89 1 122 1 111 1 64 1 26M199 619l0 -12M199 619l1 3 2 2 10 0 1 2 1 -4 1 -26 1 -71 1 -108 1 -105 1 -74 1 -42"/>
<path stroke="#DDA0DD" d="M220 196l1 -22 1 -12 0 -8 1 -5 1 -2 2 -2 2 0 1 -1 5 0 1 1 1 -2 1 1 1 26 1 70 1 112 1 122 1 85 1 40 1 16 1 7M245 623l0 -1M245 623l1 1 11 0M257 625l0 -1M257 625l1 1 1 -15 1 -50 1 -95 1 -112 1 -88 1 -55 1 -29 1 -16 1 -9"/>
<path stroke="#DDA0DD" d="M267 157l1 -6 0 -3 1 -2 1 -1 2 0 1 -1 6 0 1 1 0 -1 1 -2 1 14 1 49 1 95 1 124 1 105 1 57 1 24 1 10 1 3 1 0M291 624l0 -1M291 624l11 0 1 2 0 -6 1 -31 1 -77 1 -110 1 -102 1 -69 1 -39 1 -20 1 -12 1 -7 1 -4 1 -2 0 -2 3 0 1 -1"/>
<path stroke="#DDA0DD" d="M318 144l7 0 1 -1M326 147l0 -4M326 147l1 30 1 76 1 116 1 120 1 78 1 35 1 14 1 6 2 2 10 0 1 1 1 0 1 -18 0 -57 1 -100 1 -110 1 -84 1 -50 1 -27 1 -14 1 -10 1 -5 1 -3 2 -2 1 0 1 -1 6 0 1 1 2 -2 1 16M372 216l0 -57M372 216l1 101"/>
<path stroke="#DDA0DD" d="M373 317l1 124 1 99 1 51 1 21 1 9 1 2 1 1 11 0 1 2 1 -8 1 -37 1 -82 0 -112 1 -98 1 -65 1 -35 1 -19 1 -11 1 -7 1 -4 1 -2 1 -1 2 0 1 -1 7 0 1 -1 1 6 1 36 1 82M418 386l0 -119M418 386l1 116 1 72 1 30 1 14 1 4 2 2 10 0 1 2"/>
<path stroke="#DDA0DD" d="M436 626l1 -3 1 -21 1 -63 1 -105 1 -107 0 -80 1 -46 1 -24 1 -14 1 -8 1 -5 1 -3 2 -2 2 0 1 -1 5 0 1 1 2 -2 1 20 1 64 1 106 1 124M464 550l0 -93M464 550l1 45 1 18 1 8 1 2 1 1 10 0 2 2 1 -11 1 -43 1 -89 1 -112 1 -93 1 -60"/>
<path stroke="#DDA0DD" d="M487 218l0 -33 1 -17 1 -10 1 -7 1 -3 1 -2 1 -1 2 0 1 -1 5 0 1 1 2 -2 1 9 1 42 1 88 1 122 1 112 1 64M510 607l0 -27M510 607l1 12 1 3 2 2 10 0 1 2 1 -4 1 -26 1 -69 1 -108 1 -105 1 -75 1 -43 1 -22 0 -12 1 -8 1 -5 1 -2 2 -2"/>
<path stroke="#DDA0DD" d="M538 145l2 0 1 -1 5 0 1 1 1 -2 1 1 1 25 1 70 1 111 1 123 1 85 1 40 1 17M556 622l0 -7M556 622l2 2 10 0 2 2 1 -14 1 -50 1 -94 1 -112 1 -89 1 -55 1 -30 1 -16 1 -9 0 -6 1 -3 1 -2 1 -1 2 0 1 -1 5 0 1 1 1 -1 1 -2 1 13 1 49"/>
<path stroke="#DDA0DD" d="M595 204l1 94 1 124 1 106 1 58 1 23 1 11 1 3 1 1 10 0 1 2 1 -6 1 -30 1 -76 1 -110 1 -102 1 -70 1 -39 1 -21 1 -12 1 -7 1 -4 0 -2 2 -2 2 0 1 -1 6 0 1 -1 1 3 1 30 1 75 1 116 1 120 1 79 1 35 1 15 1 6 2 2 10 0 1 1 1 -17 1 -57"/>
<path stroke="#DDA0DD" d="M661 551l1 -99 1 -110 1 -85 1 -51 1 -27 1 -14 1 -9 1 -6 1 -3 1 -1 0 -1 2 0 1 -1 6 0 1 1 1 -1 0 -2 1 17 1 56 1 100 1 124 1 100 1 51 1 21 1 9 1 3 1 0 1 1 10 0 1 2 1 -8 0 -36 1 -82 1 -112 1 -98 1 -65 1 -36 1 -19 1 -11 1 -7"/>
<path stroke="#DDA0DD" d="M713 152l1 -4 1 -2 1 -1 2 0 1 -1 7 0 1 -1 1 6M728 184l0 -35M728 184l1 81 1 119 1 117 1 72 1 31 1 14 1 4 2 2 10 0 1 2 1 -3 1 -20 1 -63 0 -104 1 -108 1 -80 1 -47 1 -24 1 -14 1 -8 1 -5 1 -3 2 -2 2 0 0 -1 6 0 1 1 2 -2 1 20"/>
<path stroke="#DDA0DD" d="M773 163l1 63M774 331l0 -105M774 331l1 124 1 94 1 45 1 19 1 8 1 2 1 1 10 0 2 2 1 -10 1 -43 1 -88 1 -112 0 -94 1 -61 1 -32 1 -18 1 -10 1 -7 1 -3 1 -2 1 -1 2 0 1 -1 5 0 1 1 2 -2 1 9 1 41 1 87 1 122M820 514l0 -112M820 514l1 65"/>
<path stroke="#DDA0DD" d="M821 579l1 28 1 12 1 3 2 2 10 0 1 2 1 -4 1 -25 1 -69 1 -107 1 -106 1 -75 0 -43 1 -22 1 -13 1 -8 1 -5 1 -2 2 -2 2 0 1 -1 5 0 1 1 1 -2 1 1 1 24 1 69 1 111 1 123 1 86M866 598l0 -41M866 598l1 17 1 7 2 2 10 0 2 2 1 -14 1 -49"/>
<path stroke="#DDA0DD" d="M884 563l1 -94 1 -111 1 -90 1 -56 1 -30 0 -15 1 -10 1 -6 1 -3 1 -2 1 -1 2 0 1 -1 5 0 1 1 1 -1 1 -2 1 13 1 48 1 93 1 124 1 107 1 58 1 24M912 620l0 -11M912 620l1 3 1 0 1 1 10 0 1 2 1 -6 1 -29 1 -75 1 -111 1 -102 1 -70"/>
<path stroke="#DDA0DD" d="M932 233l1 -40 1 -20 1 -12 0 -8 1 -4 1 -2 2 -2 2 0 1 -1 5 0 1 1 1 -2 1 3 1 29 1 75 1 115 1 120 1 80 1 36 1 15 1 6M958 623l0 -1M958 623l1 1 11 0"/>
<path stroke="#DA70D6" d="M460 87l46 0"/>
<text stroke="none" fill="white" font-size="16" x="516" y="96">
out7
</text>
<path stroke="#DA70D6" d="M50 622l0 -4M50 622l2 2 10 0 1 2 1 -2 1 -20 1 -63 1 -105 1 -108 1 -80 1 -47 1 -24 1 -14 1 -8 0 -5 1 -3 2 -2 1 0 1 -1 8 0 1 -2 1 15 1 56 1 101 1 126 1 100 1 51 1 21 1 9 1 2M96 624l0 -1M96 624l11 0 1 3 1 -7 1 -35 1 -81"/>
<path stroke="#DA70D6" d="M111 504l1 -112 1 -99 1 -67 1 -36 1 -19 1 -12 1 -7 1 -4 0 -2 1 -1 2 0 1 -1 7 0 1 -1 1 2 1 27 1 75 1 115 1 122 1 81 1 36 1 15 1 6 2 2 10 0 1 1M153 626l0 -1M153 626l1 -15 1 -53 1 -98 1 -111 1 -87 1 -53 1 -29 1 -15 1 -9"/>
<path stroke="#DA70D6" d="M162 156l1 -6 1 -3 1 -1 0 -1 2 0 1 -1 8 0 0 -2 1 10 1 45 1 92 1 124 1 110 1 61 1 25 1 10 1 4 1 0 1 1 10 0 1 2 1 -4 0 -26 1 -71 1 -109 1 -104 1 -75 1 -42 1 -21 1 -13 1 -8 1 -4 1 -2 3 -3 8 0 2 -2M222 163l0 -21M222 163l1 65"/>
<path stroke="#DA70D6" d="M223 228l1 108 1 125 1 92 1 43 1 18 1 7 1 2 1 1 10 0 1 1 1 2 1 -11 1 -42 0 -90 1 -112 1 -94 1 -60 1 -33 1 -17 1 -10 1 -7 1 -3 1 -2 1 -1 2 0 0 -1 8 0 1 -1 1 5 1 34M268 265l0 -83M268 265l1 120 1 118 1 71 1 31 1 13 1 4"/>
<path stroke="#DA70D6" d="M274 622l2 2 10 0 1 2 1 -1 1 -20 1 -62 1 -103 0 -109 1 -81 1 -48 1 -25 1 -14 1 -8 1 -5 1 -3 2 -2 1 0 1 -1 8 0 1 -2 1 14 1 54 1 100M314 436l0 -126M314 436l1 102 1 52 1 21 1 9 1 3 1 0 1 1 10 0 1 3 1 -7 1 -33 1 -80 1 -111"/>
<path stroke="#DA70D6" d="M336 396l1 -100 0 -68 1 -38 1 -19 1 -11 1 -8 1 -4 1 -2 1 -1 2 0 1 -1 7 0 1 -1 1 1 1 26 1 74 1 114 1 123M360 564l0 -83M360 564l1 37 1 15 1 6 2 2 10 0 2 2 1 -14 1 -52 1 -96 1 -111 1 -89 1 -54 0 -29 1 -15 1 -10 1 -6 1 -3"/>
<path stroke="#DA70D6" d="M387 147l2 -2 2 0 1 -1 7 0 1 -2 1 10 1 43 1 90 1 124 1 111 1 63M406 608l0 -25M406 608l1 11 1 4 1 0 1 1 10 0 1 2 1 -3 1 -25 1 -70 1 -109 1 -105 1 -75 1 -43 1 -22 0 -12 1 -8 1 -5 1 -2 2 -2 1 0 1 -1 7 0 2 -2 1 20 1 63 1 107"/>
<path stroke="#DA70D6" d="M448 332l1 126 1 93 1 45 1 18M452 621l0 -7M452 621l1 2 1 1 10 0 1 1 1 2 1 -10 1 -41 1 -88 1 -112 1 -95 1 -62 1 -33 1 -17 1 -11 0 -7 1 -3 1 -2 1 -1 2 0 1 -1 7 0 1 -1 1 4 1 33 1 81 1 120 1 119 1 73 1 31 1 14 1 4M498 623l0 -1"/>
<path stroke="#DA70D6" d="M498 623l1 1 11 0M510 626l0 -2M510 626l1 -1 1 -19 1 -60 1 -103 1 -109 1 -82 1 -49 1 -25 1 -14 1 -9 1 -5 0 -3 2 -2 2 0 1 -1 7 0 1 -2 1 14 1 52 1 99 1 125 1 104 1 53 1 22 1 9 1 3 1 0M544 624l0 -1M544 624l11 0 1 3 0 -6"/>
<path stroke="#DA70D6" d="M556 621l1 -32 1 -79 1 -111 1 -101 1 -69 1 -38 1 -20 1 -11 1 -7 1 -5 1 -2 0 -1 2 0 1 -1 8 0 1 -1M579 144l0 -1M579 144l1 25 1 72 1 114 1 123 1 84 1 38 1 16 1 6 2 2 10 0 2 2 1 -13 0 -51 1 -95 1 -111 1 -89 1 -56 1 -29 1 -16"/>
<path stroke="#DA70D6" d="M608 166l1 -10 1 -5 1 -3 1 -2 1 -1 1 0 1 -1 8 0 1 -2 1 9M625 192l0 -41M625 192l1 89 1 124 1 112 1 64 1 27 1 11 1 3 2 2 10 0 1 2 1 -3 1 -24 1 -69 0 -107 1 -106 1 -76 1 -44 1 -22 1 -13 1 -8 1 -5 1 -2 2 -2 1 0 0 -1 8 0"/>
<path stroke="#DA70D6" d="M667 144l2 -2 1 19 1 62M671 329l0 -106M671 329l1 125 1 95 1 46 1 18 1 8 1 2 1 1 10 0 1 1 1 2 1 -9 1 -40 1 -87 1 -112 0 -96 1 -63 1 -34 1 -17 1 -11 1 -6 1 -4 1 -2 1 -1 2 0 1 -1 7 0 1 -1 1 4 1 32 1 79 1 119M717 497l0 -120"/>
<path stroke="#DA70D6" d="M717 497l1 75 1 32 1 13 1 5 2 2 10 0 1 2 1 -1 1 -18 1 -59 1 -102 1 -109 1 -83 0 -50 1 -26 1 -14 1 -9 1 -5 1 -3 2 -2 2 0 1 -1 7 0 1 -2 1 13 1 51 1 97 1 126 1 104M763 588l0 -55M763 588l1 22 1 10 1 3 1 0 1 1 10 0 1 3 1 -6"/>
<path stroke="#DA70D6" d="M780 621l1 -31 1 -77 1 -110 1 -102 1 -70 1 -39 0 -20 1 -12 1 -7 1 -4 2 -4 2 0 1 -1 7 0 1 -1 1 0 1 25 1 70 1 113 1 124 1 85 1 39M809 615l0 -16M809 615l1 7 2 2 10 0 2 2 1 -12 1 -49 1 -94 1 -112 1 -90 1 -57 1 -30 1 -15"/>
<path stroke="#DA70D6" d="M832 167l0 -10 1 -6 1 -3 1 -2 1 -1 2 0 1 -1 7 0 1 -2 1 8 1 40 1 88 1 123 1 113 1 66 1 27 1 12M855 622l0 -3M855 622l2 2 10 0 1 2 1 -3 1 -23 1 -67 1 -107 1 -106 1 -77 1 -45 1 -23 1 -13 1 -8 0 -5 1 -2 2 -2 1 0 1 -1 7 0"/>
<path stroke="#DA70D6" d="M890 144l2 -2 1 18 1 60 1 105 1 126 1 96 1 47 1 19 1 8 1 2M901 624l0 -1M901 624l11 0M912 625l0 -1M912 625l1 2 1 -9 1 -38 1 -85 1 -113 1 -96 1 -64 1 -35 1 -18 1 -10 1 -7 1 -4 0 -2 1 -1 2 0 1 -1 7 0 1 -1 1 3 1 31 1 78"/>
<path stroke="#DA70D6" d="M939 255l1 119 1 120 1 76 1 33 1 14 1 5 2 2 10 0 1 2 0 -1 1 -17 1 -57 1 -101 1 -110 1 -84 1 -51 1 -26 1 -15 1 -9 1 -5 1 -3 1 -1 0 -1"/>
</svg>
